# 3ds Max Wavefront OBJ Exporter v0.97b - (c)2007 guruware
# ÆÄÀÏ »ı¼ºµÊ: 03.06.2019 22:44:27

mtllib door2.mtl

#
# object Line001
#

v  79.1005 91.3968 -38.3529
v  79.1001 91.3968 -236.3529
v  79.1001 -28.6032 -236.3529
v  79.1005 -28.6032 -38.3529
v  196.1001 91.3968 -38.3529
v  196.1001 -28.6032 -38.3529
v  196.1001 91.3968 137.1471
v  196.1001 -28.6032 137.1471
v  205.1001 91.3968 137.1471
v  205.1001 -28.6032 137.1471
v  205.1001 91.3968 -47.3529
v  205.1001 -28.6032 -47.3529
v  88.1001 91.3968 -47.3529
v  88.1001 -28.6032 -47.3529
v  88.1001 91.3968 -236.3529
v  88.1001 -28.6032 -236.3529
# 16 vertices

vn -0.5773 0.5774 0.5774
vn -0.5774 0.5774 -0.5773
vn -0.5774 -0.5774 -0.5773
vn -0.5773 -0.5774 0.5774
vn -0.3015 0.9045 0.3015
vn -0.3015 -0.9045 0.3015
vn -0.5774 0.5774 0.5774
vn -0.5774 -0.5774 0.5774
vn 0.5774 0.5774 0.5774
vn 0.5774 -0.5774 0.5774
vn 0.5774 0.5774 -0.5774
vn 0.5774 -0.5774 -0.5774
vn 0.3015 0.9045 -0.3015
vn 0.3015 -0.9045 -0.3015
# 14 vertex normals

vt 0.0100 0.4274 0.0000
vt 0.1488 0.4274 0.0000
vt 0.1488 0.5115 0.0000
vt 0.0100 0.5115 0.0000
vt 0.2535 0.8320 0.0000
vt 0.2535 0.9140 0.0000
vt 0.1694 0.9140 0.0000
vt 0.1694 0.8320 0.0000
vt 0.3972 0.3227 0.0000
vt 0.5203 0.3227 0.0000
vt 0.5203 0.4068 0.0000
vt 0.3972 0.4068 0.0000
vt 0.5041 0.9733 0.0000
vt 0.5041 0.9796 0.0000
vt 0.4200 0.9796 0.0000
vt 0.4200 0.9733 0.0000
vt 0.4413 0.2180 0.0000
vt 0.5706 0.2180 0.0000
vt 0.5706 0.3021 0.0000
vt 0.4413 0.3021 0.0000
vt 0.5041 0.5993 0.0000
vt 0.5041 0.6814 0.0000
vt 0.4200 0.6814 0.0000
vt 0.4200 0.5993 0.0000
vt 0.2442 0.3227 0.0000
vt 0.3767 0.3227 0.0000
vt 0.3767 0.4068 0.0000
vt 0.2442 0.4068 0.0000
vt 0.7257 0.9191 0.0000
vt 0.7257 0.9254 0.0000
vt 0.6415 0.9254 0.0000
vt 0.6415 0.9191 0.0000
vt 0.2778 0.0836 0.0000
vt 0.2743 0.0889 0.0000
vt 0.1711 0.0220 0.0000
vt 0.1692 0.0133 0.0000
vt 0.1246 0.0821 0.0000
vt 0.1265 0.0908 0.0000
vt 0.0134 0.0100 0.0000
vt 0.0100 0.0153 0.0000
vt 0.0132 0.1946 0.0000
vt 0.0100 0.1892 0.0000
vt 0.1293 0.1183 0.0000
vt 0.1712 0.1888 0.0000
vt 0.2770 0.1259 0.0000
vt 0.2802 0.1314 0.0000
vt 0.1690 0.1974 0.0000
vt 0.1271 0.1269 0.0000
# 48 texture coords

g Line001
usemtl _wallMaterial__248
f 1/1/1 2/2/2 3/3/3 
f 3/3/3 4/4/4 1/1/1 
f 5/5/5 1/6/1 4/7/4 
f 4/7/4 6/8/6 5/5/5 
f 7/9/7 5/10/5 6/11/6 
f 6/11/6 8/12/8 7/9/7 
f 9/13/9 7/14/7 8/15/8 
f 8/15/8 10/16/10 9/13/9 
f 11/17/11 9/18/9 10/19/10 
f 10/19/10 12/20/12 11/17/11 
f 13/21/13 11/22/11 12/23/12 
f 12/23/12 14/24/14 13/21/13 
f 15/25/11 13/26/13 14/27/14 
f 14/27/14 16/28/12 15/25/11 
f 2/29/2 15/30/11 16/31/12 
f 16/31/12 3/32/3 2/29/2 
f 10/33/10 8/34/8 6/35/6 
f 12/36/12 10/33/10 6/35/6 
f 14/37/14 12/36/12 6/35/6 
f 14/37/14 6/35/6 4/38/4 
f 16/39/12 14/37/14 4/38/4 
f 16/39/12 4/38/4 3/40/3 
f 15/41/11 2/42/2 1/43/1 
f 5/44/5 7/45/7 9/46/9 
f 5/44/5 9/46/9 11/47/11 
f 5/44/5 11/47/11 13/48/13 
f 1/43/1 5/44/5 13/48/13 
f 15/41/11 1/43/1 13/48/13 
# 28 faces

#
# object Rectangle001
#

v  -244.8973 91.3968 -163.9486
v  -225.5545 91.3968 -163.9486
v  -225.5545 -28.6032 -163.9486
v  -244.8973 -28.6032 -163.9486
v  -244.8973 91.3968 146.5123
v  -244.8973 -28.6032 146.5123
v  -225.5545 91.3968 146.5123
v  -225.5545 -28.6032 146.5123
# 8 vertices

vn -0.5774 0.5774 -0.5774
vn 0.5774 0.5774 -0.5774
vn 0.5774 -0.5774 -0.5774
vn -0.5774 -0.5774 -0.5774
vn -0.5774 0.5774 0.5774
vn -0.5774 -0.5774 0.5774
vn 0.5774 0.5774 0.5774
vn 0.5774 -0.5774 0.5774
# 8 vertex normals

vt 0.9708 0.6951 0.0000
vt 0.9708 0.7087 0.0000
vt 0.8866 0.7087 0.0000
vt 0.8866 0.6951 0.0000
vt 0.0100 0.2180 0.0000
vt 0.2277 0.2180 0.0000
vt 0.2277 0.3021 0.0000
vt 0.0100 0.3021 0.0000
vt 0.9598 0.4801 0.0000
vt 0.9598 0.4936 0.0000
vt 0.8757 0.4936 0.0000
vt 0.8757 0.4801 0.0000
vt 0.3052 0.0100 0.0000
vt 0.5229 0.0100 0.0000
vt 0.5229 0.0941 0.0000
vt 0.3052 0.0941 0.0000
vt 0.9708 0.6129 0.0000
vt 0.7531 0.6129 0.0000
vt 0.7531 0.5993 0.0000
vt 0.9708 0.5993 0.0000
vt 0.8592 0.6951 0.0000
vt 0.8592 0.7087 0.0000
vt 0.6415 0.7087 0.0000
vt 0.6415 0.6951 0.0000
# 24 texture coords

g Rectangle001
usemtl _wallMaterial__255
f 17/49/15 18/50/16 19/51/17 
f 19/51/17 20/52/18 17/49/15 
f 21/53/19 17/54/15 20/55/18 
f 20/55/18 22/56/20 21/53/19 
f 23/57/21 21/58/19 22/59/20 
f 22/59/20 24/60/22 23/57/21 
f 18/61/16 23/62/21 24/63/22 
f 24/63/22 19/64/17 18/61/16 
f 22/65/20 20/66/18 19/67/17 
f 19/67/17 24/68/22 22/65/20 
f 18/69/16 17/70/15 21/71/19 
f 21/71/19 23/72/21 18/69/16 
# 12 faces

#
# object Line002
#

v  196.1001 91.3968 137.1471
v  241.1001 91.3968 137.1471
v  241.1001 -28.6032 137.1471
v  196.1001 -28.6032 137.1471
v  196.1001 91.3968 234.6471
v  196.1001 -28.6032 234.6471
v  97.1001 91.3968 234.6471
v  97.1001 -28.6032 234.6471
v  97.1001 91.3968 138.6471
v  97.1001 -28.6032 138.6471
v  85.3462 91.3968 138.6471
v  85.3462 -28.6032 138.6471
v  79.1005 91.3968 138.6471
v  79.1005 -28.6032 138.6471
v  79.1001 91.3968 243.6471
v  79.1001 -28.6032 243.6471
v  205.1001 91.3968 243.6471
v  205.1001 -28.6032 243.6471
v  205.1001 91.3968 146.1471
v  205.1001 -28.6032 146.1471
v  241.1001 91.3968 146.1471
v  241.1001 -28.6032 146.1471
# 22 vertices

vn -0.5774 0.5774 -0.5774
vn 0.5774 0.5774 -0.5774
vn 0.5774 -0.5774 -0.5774
vn -0.5774 -0.5774 -0.5774
vn -0.3015 0.9045 -0.3015
vn -0.3015 -0.9045 -0.3015
vn 0.3015 0.9045 -0.3015
vn 0.3015 -0.9045 -0.3015
vn 0.0000 0.7071 -0.7071
vn 0.0000 -0.7071 -0.7071
vn -0.5773 0.5774 -0.5774
vn -0.5773 -0.5774 -0.5774
vn -0.5774 0.5773 0.5773
vn -0.5774 -0.5774 0.5773
vn 0.5774 0.5774 0.5774
vn 0.5774 -0.5774 0.5774
vn 0.3015 0.9045 0.3015
vn 0.3015 -0.9045 0.3015
# 18 vertex normals

vt 0.5041 0.9143 0.0000
vt 0.5041 0.9458 0.0000
vt 0.4200 0.9458 0.0000
vt 0.4200 0.9143 0.0000
vt 0.7257 0.5993 0.0000
vt 0.7257 0.6677 0.0000
vt 0.6415 0.6677 0.0000
vt 0.6415 0.5993 0.0000
vt 0.7814 0.1183 0.0000
vt 0.7814 0.1877 0.0000
vt 0.6973 0.1877 0.0000
vt 0.6973 0.1183 0.0000
vt 0.8483 0.4274 0.0000
vt 0.8483 0.4947 0.0000
vt 0.7641 0.4947 0.0000
vt 0.7641 0.4274 0.0000
vt 0.7257 0.7653 0.0000
vt 0.7257 0.7735 0.0000
vt 0.6415 0.7735 0.0000
vt 0.6415 0.7653 0.0000
vt 0.7257 0.7609 0.0000
vt 0.6415 0.7609 0.0000
vt 0.7367 0.4274 0.0000
vt 0.7367 0.5010 0.0000
vt 0.6526 0.5010 0.0000
vt 0.6526 0.4274 0.0000
vt 0.7403 0.3227 0.0000
vt 0.8286 0.3227 0.0000
vt 0.8286 0.4068 0.0000
vt 0.7403 0.4068 0.0000
vt 0.5041 0.8185 0.0000
vt 0.5041 0.8868 0.0000
vt 0.4200 0.8868 0.0000
vt 0.4200 0.8185 0.0000
vt 0.9598 0.4274 0.0000
vt 0.9598 0.4526 0.0000
vt 0.8757 0.4526 0.0000
vt 0.8757 0.4274 0.0000
vt 0.7257 0.8853 0.0000
vt 0.7257 0.8917 0.0000
vt 0.6415 0.8917 0.0000
vt 0.6415 0.8853 0.0000
vt 0.1192 0.8135 0.0000
vt 0.1110 0.8135 0.0000
vt 0.1110 0.7462 0.0000
vt 0.1236 0.8135 0.0000
vt 0.1236 0.7399 0.0000
vt 0.0415 0.7462 0.0000
vt 0.0352 0.7399 0.0000
vt 0.0352 0.8083 0.0000
vt 0.0415 0.8146 0.0000
vt 0.0100 0.8146 0.0000
vt 0.0100 0.8083 0.0000
vt 0.1946 0.6400 0.0000
vt 0.1694 0.6400 0.0000
vt 0.1694 0.6337 0.0000
vt 0.2009 0.6337 0.0000
vt 0.2009 0.7020 0.0000
vt 0.2703 0.7020 0.0000
vt 0.2703 0.6347 0.0000
vt 0.2786 0.6347 0.0000
vt 0.2830 0.6347 0.0000
vt 0.2830 0.7083 0.0000
vt 0.1946 0.7083 0.0000
# 64 texture coords

g Line002
usemtl _wallMaterial__265
f 25/73/23 26/74/24 27/75/25 
f 27/75/25 28/76/26 25/73/23 
f 29/77/27 25/78/23 28/79/26 
f 28/79/26 30/80/28 29/77/27 
f 31/81/29 29/82/27 30/83/28 
f 30/83/28 32/84/30 31/81/29 
f 33/85/24 31/86/29 32/87/30 
f 32/87/30 34/88/25 33/85/24 
f 35/89/31 33/90/24 34/91/25 
f 34/91/25 36/92/32 35/89/31 
f 37/93/33 35/89/31 36/92/32 
f 36/92/32 38/94/34 37/93/33 
f 39/95/35 37/96/33 38/97/34 
f 38/97/34 40/98/36 39/95/35 
f 41/99/37 39/100/35 40/101/36 
f 40/101/36 42/102/38 41/99/37 
f 43/103/39 41/104/37 42/105/38 
f 42/105/38 44/106/40 43/103/39 
f 45/107/37 43/108/39 44/109/40 
f 44/109/40 46/110/38 45/107/37 
f 26/111/24 45/112/37 46/113/38 
f 46/113/38 27/114/25 26/111/24 
f 36/115/32 34/116/25 32/117/30 
f 38/118/34 36/115/32 32/117/30 
f 40/119/36 38/118/34 32/117/30 
f 40/119/36 32/117/30 30/120/28 
f 42/121/38 40/119/36 30/120/28 
f 44/122/40 42/121/38 30/120/28 
f 44/122/40 30/120/28 28/123/26 
f 44/122/40 28/123/26 27/124/25 
f 44/122/40 27/124/25 46/125/38 
f 43/126/39 45/127/37 26/128/24 
f 43/126/39 26/128/24 25/129/23 
f 43/126/39 25/129/23 29/130/27 
f 31/131/29 33/132/24 35/133/31 
f 31/131/29 35/133/31 37/134/33 
f 31/131/29 37/134/33 39/135/35 
f 29/130/27 31/131/29 39/135/35 
f 29/130/27 39/135/35 41/136/37 
f 43/126/39 29/130/27 41/136/37 
# 40 faces

#
# object Rectangle003
#

v  81.7139 89.1529 -36.1091
v  81.7139 89.1529 136.4031
v  82.9139 89.1529 136.4031
v  82.9139 89.1529 -36.1091
v  81.7139 -26.3593 -36.1091
v  82.9139 -26.3593 -36.1091
v  81.7139 -26.3593 136.4031
v  82.9139 -26.3593 136.4031
# 8 vertices

vn -0.5774 0.5774 -0.5774
vn -0.5774 0.5774 0.5774
vn 0.5774 0.5774 0.5774
vn 0.5774 0.5774 -0.5774
vn -0.5773 -0.5774 -0.5774
vn 0.5774 -0.5774 -0.5774
vn -0.5774 -0.5774 0.5774
vn 0.5774 -0.5774 0.5774
# 8 vertex normals

vt 0.8740 0.9696 0.0000
vt 0.7531 0.9696 0.0000
vt 0.7531 0.9688 0.0000
vt 0.8740 0.9688 0.0000
vt 0.9015 0.9688 0.0000
vt 0.9825 0.9688 0.0000
vt 0.9825 0.9696 0.0000
vt 0.9015 0.9696 0.0000
vt 0.8740 0.9413 0.0000
vt 0.7531 0.9413 0.0000
vt 0.7531 0.9405 0.0000
vt 0.8740 0.9405 0.0000
vt 0.6126 0.9698 0.0000
vt 0.5316 0.9698 0.0000
vt 0.5316 0.9690 0.0000
vt 0.6126 0.9690 0.0000
vt 0.3141 0.5084 0.0000
vt 0.3141 0.4274 0.0000
vt 0.4350 0.4274 0.0000
vt 0.4350 0.5084 0.0000
vt 0.1694 0.5321 0.0000
vt 0.2903 0.5321 0.0000
vt 0.2903 0.6131 0.0000
vt 0.1694 0.6131 0.0000
# 24 texture coords

g Rectangle003
usemtl _wallMaterial__249
f 47/137/41 48/138/42 49/139/43 
f 49/139/43 50/140/44 47/137/41 
f 51/141/45 47/142/41 50/143/44 
f 50/143/44 52/144/46 51/141/45 
f 53/145/47 51/146/45 52/147/46 
f 52/147/46 54/148/48 53/145/47 
f 48/149/42 53/150/47 54/151/48 
f 54/151/48 49/152/43 48/149/42 
f 52/153/46 50/154/44 49/155/43 
f 49/155/43 54/156/48 52/153/46 
f 48/157/42 47/158/41 51/159/45 
f 51/159/45 53/160/47 48/157/42 
# 12 faces

#
# object Rectangle006
#

v  -44.9555 89.1134 -160.3486
v  76.8168 89.1134 -160.3486
v  76.8168 89.1134 -161.5486
v  -44.9555 89.1134 -161.5486
v  -44.9555 -28.6032 -160.3487
v  -44.9555 -28.6032 -161.5487
v  76.8168 -28.6032 -160.3487
v  76.8168 -28.6032 -161.5487
# 8 vertices

vn -0.5774 0.5773 0.5774
vn 0.5773 0.5774 0.5774
vn 0.5774 0.5773 -0.5774
vn -0.5773 0.5774 -0.5774
vn -0.5773 -0.5774 0.5774
vn -0.5774 -0.5773 -0.5774
vn 0.5774 -0.5773 0.5774
vn 0.5773 -0.5774 -0.5774
# 8 vertex normals

vt 0.9900 0.7618 0.0000
vt 0.9046 0.7618 0.0000
vt 0.9046 0.7609 0.0000
vt 0.9900 0.7609 0.0000
vt 0.5316 0.7428 0.0000
vt 0.6141 0.7428 0.0000
vt 0.6141 0.7436 0.0000
vt 0.5316 0.7436 0.0000
vt 0.8647 0.8853 0.0000
vt 0.9500 0.8853 0.0000
vt 0.9500 0.8862 0.0000
vt 0.8647 0.8862 0.0000
vt 0.6141 0.8002 0.0000
vt 0.5316 0.8002 0.0000
vt 0.5316 0.7993 0.0000
vt 0.6141 0.7993 0.0000
vt 0.8492 0.4052 0.0000
vt 0.8492 0.3227 0.0000
vt 0.9346 0.3227 0.0000
vt 0.9346 0.4052 0.0000
vt 0.1694 0.7289 0.0000
vt 0.2548 0.7289 0.0000
vt 0.2548 0.8114 0.0000
vt 0.1694 0.8114 0.0000
# 24 texture coords

g Rectangle006
usemtl _wallMaterial__250
f 55/161/49 56/162/50 57/163/51 
f 57/163/51 58/164/52 55/161/49 
f 59/165/53 55/166/49 58/167/52 
f 58/167/52 60/168/54 59/165/53 
f 61/169/55 59/170/53 60/171/54 
f 60/171/54 62/172/56 61/169/55 
f 56/173/50 61/174/55 62/175/56 
f 62/175/56 57/176/51 56/173/50 
f 60/177/54 58/178/52 57/179/51 
f 57/179/51 62/180/56 60/177/54 
f 56/181/50 55/182/49 59/183/53 
f 59/183/53 61/184/55 56/181/50 
# 12 faces

#
# object Rectangle007
#

v  -164.6165 89.1133 -160.3486
v  -47.3141 89.1133 -160.3486
v  -47.3141 89.1133 -161.5486
v  -164.6165 89.1133 -161.5486
v  -164.6165 -28.6033 -160.3487
v  -164.6165 -28.6033 -161.5487
v  -47.3141 -28.6033 -160.3487
v  -47.3141 -28.6033 -161.5487
# 8 vertices

vn -0.5774 0.5773 0.5774
vn 0.5773 0.5774 0.5774
vn 0.5774 0.5774 -0.5774
vn -0.5773 0.5774 -0.5774
vn -0.5773 -0.5774 0.5774
vn -0.5774 -0.5773 -0.5774
vn 0.5774 -0.5774 0.5774
vn 0.5773 -0.5774 -0.5774
# 8 vertex normals

vt 0.9837 0.9413 0.0000
vt 0.9015 0.9413 0.0000
vt 0.9015 0.9405 0.0000
vt 0.9837 0.9405 0.0000
vt 0.5316 0.7710 0.0000
vt 0.6141 0.7710 0.0000
vt 0.6141 0.7719 0.0000
vt 0.5316 0.7719 0.0000
vt 0.8970 0.9191 0.0000
vt 0.9793 0.9191 0.0000
vt 0.9793 0.9199 0.0000
vt 0.8970 0.9199 0.0000
vt 0.6141 0.8284 0.0000
vt 0.5316 0.8284 0.0000
vt 0.5316 0.8276 0.0000
vt 0.6141 0.8276 0.0000
vt 0.5316 0.5993 0.0000
vt 0.6141 0.5993 0.0000
vt 0.6141 0.6816 0.0000
vt 0.5316 0.6816 0.0000
vt 0.5025 0.7088 0.0000
vt 0.5025 0.7910 0.0000
vt 0.4200 0.7910 0.0000
vt 0.4200 0.7088 0.0000
# 24 texture coords

g Rectangle007
usemtl _wallMaterial__251
f 63/185/57 64/186/58 65/187/59 
f 65/187/59 66/188/60 63/185/57 
f 67/189/61 63/190/57 66/191/60 
f 66/191/60 68/192/62 67/189/61 
f 69/193/63 67/194/61 68/195/62 
f 68/195/62 70/196/64 69/193/63 
f 64/197/58 69/198/63 70/199/64 
f 70/199/64 65/200/59 64/197/58 
f 68/201/62 66/202/60 65/203/59 
f 65/203/59 70/204/64 68/201/62 
f 64/205/58 63/206/57 67/207/61 
f 67/207/61 69/208/63 64/205/58 
# 12 faces

#
# object Rectangle008
#

v  -44.9555 89.1134 144.1123
v  76.8168 89.1134 144.1123
v  76.8168 89.1134 142.9123
v  -44.9555 89.1134 142.9123
v  -44.9555 -28.6032 144.1123
v  -44.9555 -28.6032 142.9123
v  76.8168 -28.6032 144.1123
v  76.8168 -28.6032 142.9123
# 8 vertices

vn -0.5774 0.5773 0.5774
vn 0.5773 0.5774 0.5774
vn 0.5774 0.5773 -0.5774
vn -0.5773 0.5774 -0.5774
vn -0.5773 -0.5774 0.5774
vn -0.5774 -0.5773 -0.5774
vn 0.5774 -0.5773 0.5774
vn 0.5773 -0.5774 -0.5774
# 8 vertex normals

vt 0.7269 0.9862 0.0000
vt 0.6415 0.9862 0.0000
vt 0.6415 0.9853 0.0000
vt 0.7269 0.9853 0.0000
vt 0.5316 0.9124 0.0000
vt 0.6141 0.9124 0.0000
vt 0.6141 0.9133 0.0000
vt 0.5316 0.9133 0.0000
vt 0.8725 0.7361 0.0000
vt 0.9579 0.7361 0.0000
vt 0.9579 0.7370 0.0000
vt 0.8725 0.7370 0.0000
vt 0.6141 0.8567 0.0000
vt 0.5316 0.8567 0.0000
vt 0.5316 0.8559 0.0000
vt 0.6141 0.8559 0.0000
vt 0.3141 0.6819 0.0000
vt 0.3141 0.5993 0.0000
vt 0.3994 0.5993 0.0000
vt 0.3994 0.6819 0.0000
vt 0.0100 0.8352 0.0000
vt 0.0954 0.8352 0.0000
vt 0.0954 0.9177 0.0000
vt 0.0100 0.9177 0.0000
# 24 texture coords

g Rectangle008
usemtl _wallMaterial__253
f 71/209/65 72/210/66 73/211/67 
f 73/211/67 74/212/68 71/209/65 
f 75/213/69 71/214/65 74/215/68 
f 74/215/68 76/216/70 75/213/69 
f 77/217/71 75/218/69 76/219/70 
f 76/219/70 78/220/72 77/217/71 
f 72/221/66 77/222/71 78/223/72 
f 78/223/72 73/224/67 72/221/66 
f 76/225/70 74/226/68 73/227/67 
f 73/227/67 78/228/72 76/225/70 
f 72/229/66 71/230/65 75/231/69 
f 75/231/69 77/232/71 72/229/66 
# 12 faces

#
# object Rectangle009
#

v  -223.2711 89.1133 144.1123
v  -47.3141 89.1133 144.1123
v  -47.3141 89.1133 142.9123
v  -223.2711 89.1133 142.9123
v  -223.2711 -28.6033 144.1123
v  -223.2711 -28.6033 142.9123
v  -47.3141 -28.6033 144.1123
v  -47.3141 -28.6033 142.9123
# 8 vertices

vn -0.5774 0.5774 0.5774
vn 0.5773 0.5774 0.5774
vn 0.5774 0.5774 -0.5773
vn -0.5773 0.5774 -0.5774
vn -0.5773 -0.5774 0.5774
vn -0.5774 -0.5774 -0.5774
vn 0.5774 -0.5774 0.5774
vn 0.5773 -0.5774 -0.5774
# 8 vertex normals

vt 0.9133 0.8334 0.0000
vt 0.7899 0.8334 0.0000
vt 0.7899 0.8326 0.0000
vt 0.9133 0.8326 0.0000
vt 0.5316 0.9407 0.0000
vt 0.6141 0.9407 0.0000
vt 0.6141 0.9415 0.0000
vt 0.5316 0.9415 0.0000
vt 0.7531 0.9191 0.0000
vt 0.8765 0.9191 0.0000
vt 0.8765 0.9199 0.0000
vt 0.7531 0.9199 0.0000
vt 0.6141 0.8850 0.0000
vt 0.5316 0.8850 0.0000
vt 0.5316 0.8841 0.0000
vt 0.6141 0.8841 0.0000
vt 0.0100 0.7194 0.0000
vt 0.0100 0.6368 0.0000
vt 0.1334 0.6368 0.0000
vt 0.1334 0.7194 0.0000
vt 0.5912 0.2180 0.0000
vt 0.7146 0.2180 0.0000
vt 0.7146 0.3005 0.0000
vt 0.5912 0.3005 0.0000
# 24 texture coords

g Rectangle009
usemtl _wallMaterial__254
f 79/233/73 80/234/74 81/235/75 
f 81/235/75 82/236/76 79/233/73 
f 83/237/77 79/238/73 82/239/76 
f 82/239/76 84/240/78 83/237/77 
f 85/241/79 83/242/77 84/243/78 
f 84/243/78 86/244/80 85/241/79 
f 80/245/74 85/246/79 86/247/80 
f 86/247/80 81/248/75 80/245/74 
f 84/249/78 82/250/76 81/251/75 
f 81/251/75 86/252/80 84/249/78 
f 80/253/74 79/254/73 83/255/77 
f 83/255/77 85/256/79 80/253/74 
# 12 faces

#
# object Rectangle032
#

v  -225.5545 91.3968 -156.7486
v  -166.8999 91.3968 -156.7486
v  -166.8999 91.3968 -163.9486
v  -225.5545 91.3968 -163.9486
v  -225.5545 -28.6032 -156.7487
v  -225.5545 -28.6032 -163.9487
v  -166.8999 -28.6032 -156.7487
v  -166.8999 -28.6032 -163.9487
# 8 vertices

vn -0.5774 0.5774 0.5774
vn 0.5774 0.5774 0.5774
vn 0.5774 0.5774 -0.5774
vn -0.5774 0.5774 -0.5774
vn -0.5774 -0.5774 0.5774
vn -0.5774 -0.5774 -0.5774
vn 0.5774 -0.5774 0.5774
vn 0.5774 -0.5774 -0.5774
# 8 vertex normals

vt 0.9760 0.2934 0.0000
vt 0.9348 0.2934 0.0000
vt 0.9348 0.2884 0.0000
vt 0.9760 0.2884 0.0000
vt 0.6415 0.9528 0.0000
vt 0.7257 0.9528 0.0000
vt 0.7257 0.9579 0.0000
vt 0.6415 0.9579 0.0000
vt 0.9093 0.5538 0.0000
vt 0.9504 0.5538 0.0000
vt 0.9504 0.5588 0.0000
vt 0.9093 0.5588 0.0000
vt 0.8372 0.8904 0.0000
vt 0.7531 0.8904 0.0000
vt 0.7531 0.8853 0.0000
vt 0.8372 0.8853 0.0000
vt 0.1694 0.9415 0.0000
vt 0.2535 0.9415 0.0000
vt 0.2535 0.9826 0.0000
vt 0.1694 0.9826 0.0000
vt 0.0941 0.9383 0.0000
vt 0.0941 0.9794 0.0000
vt 0.0100 0.9794 0.0000
vt 0.0100 0.9383 0.0000
# 24 texture coords

g Rectangle032
usemtl _wallMaterial__252
f 87/257/81 88/258/82 89/259/83 
f 89/259/83 90/260/84 87/257/81 
f 91/261/85 87/262/81 90/263/84 
f 90/263/84 92/264/86 91/261/85 
f 93/265/87 91/266/85 92/267/86 
f 92/267/86 94/268/88 93/265/87 
f 88/269/82 93/270/87 94/271/88 
f 94/271/88 89/272/83 88/269/82 
f 92/273/86 90/274/84 89/275/83 
f 89/275/83 94/276/88 92/273/86 
f 88/277/82 87/278/81 91/279/85 
f 91/279/85 93/280/87 88/277/82 
# 12 faces

