# 3ds Max Wavefront OBJ Exporter v0.97b - (c)2007 guruware
# File Created: 03.06.2019 16:25:10

mtllib picturecase.mtl

#
# object Rectangle052
#

v  121.8326 15.8265 -133.9538
v  121.8326 15.8265 -56.7590
v  123.6326 15.8265 -56.7590
v  123.6326 15.8265 -133.9538
v  121.8326 64.3985 -133.9538
v  123.6326 64.3985 -133.9538
v  121.8326 64.3985 -56.7590
v  123.6326 64.3985 -56.7590
v  121.8326 65.7004 -135.2557
v  121.8326 65.7004 -55.4571
v  123.6326 65.7004 -55.4571
v  123.6326 65.7004 -135.2557
v  121.8326 14.5246 -135.2557
v  123.6326 14.5246 -135.2557
v  121.8326 14.5246 -55.4571
v  123.6326 14.5246 -55.4571
# 16 vertices

vn -0.9045 0.3015 0.3015
vn -0.9045 0.3015 -0.3015
vn 0.9045 0.3015 -0.3015
vn 0.9045 0.3015 0.3015
vn -0.9045 -0.3015 0.3015
vn 0.9045 -0.3015 0.3015
vn -0.9045 -0.3015 -0.3015
vn 0.9045 -0.3015 -0.3015
vn -0.5774 0.5773 -0.5774
vn -0.5774 0.5774 0.5774
vn 0.5774 0.5774 0.5774
vn 0.5774 0.5774 -0.5774
vn -0.5774 -0.5774 -0.5774
vn 0.5774 -0.5774 -0.5774
vn -0.5774 -0.5773 0.5774
vn 0.5774 -0.5774 0.5774
# 16 vertex normals

vt 0.0005 0.0005 1.4990
vt 0.9995 0.0005 1.4990
vt 0.9995 0.0005 0.0005
vt 0.0005 0.0005 0.0005
vt 0.0005 0.9995 1.4990
vt 0.0005 0.9995 0.0005
vt 0.9995 0.9995 1.4990
vt 0.9995 0.9995 0.0005
vt -0.0163 1.0263 1.4990
vt 1.0163 1.0263 1.4990
vt 1.0163 1.0263 0.0005
vt -0.0163 1.0263 0.0005
vt -0.0163 -0.0263 1.4990
vt -0.0163 -0.0263 0.0005
vt 1.0163 -0.0263 1.4990
vt 1.0163 -0.0263 0.0005
# 16 texture coords

o Rectangle052
g Rectangle052
usemtl Material__290
s 1
f 1/1/1 2/2/2 3/3/3 
f 3/3/3 4/4/4 1/1/1 
s 4
f 5/5/5 1/1/1 4/4/4 
f 4/4/4 6/6/6 5/5/5 
s 2
f 7/7/7 5/5/5 6/6/6 
f 6/6/6 8/8/8 7/7/7 
s 4
f 2/2/2 7/7/7 8/8/8 
f 8/8/8 3/3/3 2/2/2 
s 1
f 9/9/9 10/10/10 11/11/11 
f 11/11/11 12/12/12 9/9/9 
s 4
f 13/13/13 9/9/9 12/12/12 
f 12/12/12 14/14/14 13/13/13 
s 2
f 15/15/15 13/13/13 14/14/14 
f 14/14/14 16/16/16 15/15/15 
s 4
f 10/10/10 15/15/15 16/16/16 
f 16/16/16 11/11/11 10/10/10 
s 16
f 12/12/12 11/11/11 6/6/6 
f 12/12/12 6/6/6 4/4/4 
f 14/14/14 12/12/12 4/4/4 
f 14/14/14 4/4/4 3/3/3 
f 16/16/16 14/14/14 3/3/3 
f 8/8/8 6/6/6 11/11/11 
f 3/3/3 8/8/8 11/11/11 
f 16/16/16 3/3/3 11/11/11 
f 10/10/10 5/5/5 7/7/7 
f 10/10/10 7/7/7 2/2/2 
f 15/15/15 10/10/10 2/2/2 
f 5/5/5 10/10/10 9/9/9 
f 1/1/1 5/5/5 9/9/9 
f 1/1/1 9/9/9 13/13/13 
f 2/2/2 1/1/1 13/13/13 
f 15/15/15 2/2/2 13/13/13 
# 0 polygons - 32 triangles

