# 3ds Max Wavefront OBJ Exporter v0.97b - (c)2007 guruware
# File Created: 03.06.2019 16:24:51

mtllib picture.mtl

#
# object Rectangle051
#

v  122.4326 64.3985 -133.9538
v  122.4326 64.3985 -56.7590
v  123.6326 64.3985 -56.7590
v  123.6326 64.3985 -133.9538
v  122.4326 15.8265 -133.9538
v  123.6326 15.8265 -133.9538
v  122.4326 15.8265 -56.7590
v  123.6326 15.8265 -56.7590
# 8 vertices

vn -0.5774 0.5774 -0.5774
vn -0.5774 0.5774 0.5774
vn 0.5774 0.5774 0.5774
vn 0.5774 0.5774 -0.5774
vn -0.5774 -0.5774 -0.5774
vn 0.5774 -0.5774 -0.5774
vn -0.5774 -0.5774 0.5774
vn 0.5774 -0.5774 0.5774
# 8 vertex normals

vt 0.0005 0.9995 0.9995
vt 0.9995 0.9995 0.9995
vt 0.9995 0.9995 0.0005
vt 0.0005 0.9995 0.0005
vt 0.0005 0.0005 0.9995
vt 0.0005 0.0005 0.0005
vt 0.9995 0.0005 0.9995
vt 0.9995 0.0005 0.0005
# 8 texture coords

o Rectangle051
g Rectangle051
usemtl Material__237
s 1
f 1/1/1 2/2/2 3/3/3 
f 3/3/3 4/4/4 1/1/1 
s 4
f 5/5/5 1/1/1 4/4/4 
f 4/4/4 6/6/6 5/5/5 
s 2
f 7/7/7 5/5/5 6/6/6 
f 6/6/6 8/8/8 7/7/7 
s 4
f 2/2/2 7/7/7 8/8/8 
f 8/8/8 3/3/3 2/2/2 
s 16
f 6/6/6 4/4/4 3/3/3 
f 3/3/3 8/8/8 6/6/6 
f 2/2/2 1/1/1 5/5/5 
f 5/5/5 7/7/7 2/2/2 
# 0 polygons - 12 triangles

