# 3ds Max Wavefront OBJ Exporter v0.97b - (c)2007 guruware
# File Created: 03.06.2019 16:35:15

mtllib tvtable.mtl

#
# object Rectangle047
#

v  -122.3676 -12.8321 75.1829
v  -122.3676 -12.8321 -72.1185
v  -110.3676 -12.8321 -72.1185
v  -110.3676 -12.8321 75.1829
v  -122.3676 -25.8572 75.1829
v  -110.3676 -25.8572 75.1829
v  -122.3676 -25.8572 -72.1185
v  -110.3676 -25.8572 -72.1185
v  -122.3676 -25.1707 74.4964
v  -122.3676 -25.1707 -71.4320
v  -110.3676 -25.1707 -71.4320
v  -110.3676 -25.1707 74.4964
v  -122.3676 -13.5186 74.4963
v  -110.3676 -13.5186 74.4963
v  -122.3676 -13.5186 -71.4320
v  -110.3676 -13.5186 -71.4320
# 16 vertices

vn -0.5774 0.5774 0.5774
vn -0.5774 0.5774 -0.5774
vn 0.5774 0.5774 -0.5774
vn 0.5774 0.5774 0.5774
vn -0.5774 -0.5774 0.5774
vn 0.5774 -0.5774 0.5774
vn -0.5774 -0.5774 -0.5774
vn 0.5774 -0.5774 -0.5774
vn -0.9045 0.3015 -0.3015
vn -0.9045 0.3015 0.3015
vn 0.9045 0.3015 0.3015
vn 0.9045 0.3015 -0.3015
vn -0.9045 -0.3015 -0.3015
vn 0.9045 -0.3015 -0.3015
vn -0.9045 -0.3015 0.3015
vn 0.9045 -0.3015 0.3015
# 16 vertex normals

o Rectangle047
g Rectangle047
usemtl Material__227
s 1
f 3//3 2//2 1//1 
f 1//1 4//4 3//3 
s 4
f 4//4 1//1 5//5 
f 5//5 6//6 4//4 
s 2
f 6//6 5//5 7//7 
f 7//7 8//8 6//6 
s 4
f 8//8 7//7 2//2 
f 2//2 3//3 8//8 
s 1
f 11//11 10//10 9//9 
f 9//9 12//12 11//11 
s 4
f 12//12 9//9 13//13 
f 13//13 14//14 12//12 
s 2
f 14//14 13//13 15//15 
f 15//15 16//16 14//14 
s 4
f 16//16 15//15 10//10 
f 10//10 11//11 16//16 
s 16
f 12//12 4//4 6//6 
f 11//11 12//12 6//6 
f 11//11 6//6 8//8 
f 16//16 11//11 8//8 
f 16//16 8//8 3//3 
f 14//14 16//16 3//3 
f 4//4 12//12 14//14 
f 4//4 14//14 3//3 
f 13//13 9//9 1//1 
f 13//13 1//1 2//2 
f 15//15 13//13 2//2 
f 5//5 1//1 9//9 
f 5//5 9//9 10//10 
f 7//7 5//5 10//10 
f 7//7 10//10 15//15 
f 7//7 15//15 2//2 
# 0 polygons - 32 triangles

#
# object Line110
#

v  -122.3676 -12.8322 -72.1185
v  -122.3676 -12.8322 -19.7348
v  -110.3676 -12.8322 -19.7348
v  -110.3676 -12.8322 -72.1185
v  -122.3676 -25.8572 -72.1185
v  -110.3676 -25.8572 -72.1185
v  -122.3676 -25.8572 40.0746
v  -110.3676 -25.8572 40.0746
v  -122.3676 -28.6032 40.0746
v  -110.3676 -28.6032 40.0746
v  -122.3676 -28.6032 -74.8645
v  -110.3676 -28.6032 -74.8645
v  -122.3676 -10.0862 -74.8645
v  -110.3676 -10.0862 -74.8645
v  -122.3676 -10.0862 -19.7348
v  -110.3676 -10.0862 -19.7348
# 16 vertices

vn -0.9045 -0.3015 0.3015
vn -0.5774 -0.5774 0.5774
vn 0.5774 -0.5774 0.5774
vn 0.9045 -0.3015 0.3015
vn -0.9045 0.3015 0.3015
vn 0.9045 0.3015 0.3015
vn -0.5774 0.5774 0.5774
vn 0.5774 0.5774 0.5774
vn -0.5774 -0.5774 -0.5774
vn 0.5774 -0.5774 -0.5774
vn -0.5774 0.5774 -0.5774
vn 0.5774 0.5774 -0.5774
# 12 vertex normals

vt 0.9756 0.9597 0.5776
vt 0.5203 0.9597 0.5776
vt 0.5203 0.0403 0.5776
vt 0.9756 0.0403 0.5776
vt 0.5776 0.9597 0.9756
vt 0.4224 0.9597 0.9756
vt 0.4224 0.0403 0.9756
vt 0.5776 0.0403 0.9756
vt 0.9995 0.9597 0.4224
vt 0.0244 0.9597 0.4224
vt 0.0244 0.0403 0.4224
vt 0.9995 0.0403 0.4224
vt 0.6104 0.9597 0.0005
vt 0.5776 0.9597 0.0005
vt 0.5776 0.0403 0.0005
vt 0.6104 0.0403 0.0005
vt 0.9995 0.9597 0.3896
vt 0.0005 0.9597 0.3896
vt 0.0005 0.0403 0.3896
vt 0.9995 0.0403 0.3896
vt 0.6104 0.9597 0.9995
vt 0.3896 0.9597 0.9995
vt 0.3896 0.0403 0.9995
vt 0.6104 0.0403 0.9995
vt 0.4797 0.9597 0.6104
vt 0.0005 0.9597 0.6104
vt 0.0005 0.0403 0.6104
vt 0.4797 0.0403 0.6104
vt 0.4224 0.9597 0.5203
vt 0.3896 0.9597 0.5203
vt 0.3896 0.0403 0.5203
vt 0.4224 0.0403 0.5203
vt 0.9995 0.3896 0.0403
vt 0.9995 0.4224 0.0403
vt 0.0244 0.4224 0.0403
vt 0.0005 0.3896 0.0403
vt 0.0244 0.5776 0.0403
vt 0.0005 0.6104 0.0403
vt 0.4797 0.6104 0.0403
vt 0.4797 0.5776 0.0403
vt 0.5203 0.6104 0.9597
vt 0.5203 0.5776 0.9597
vt 0.9756 0.5776 0.9597
vt 0.9756 0.4224 0.9597
vt 0.0005 0.4224 0.9597
vt 0.0005 0.3896 0.9597
vt 0.9995 0.3896 0.9597
vt 0.9995 0.6104 0.9597
# 48 texture coords

o Line110
g Line110
usemtl Material__229
s 1
f 19/3/19 18/2/18 17/1/17 
f 17/1/17 20/4/20 19/3/19 
s 4
f 20/7/20 17/6/17 21/5/21 
f 21/5/21 22/8/22 20/7/20 
s 2
f 22/11/22 21/10/21 23/9/23 
f 23/9/23 24/12/24 22/11/22 
s 4
f 24/15/24 23/14/23 25/13/18 
f 25/13/18 26/16/19 24/15/24 
s 2
f 26/19/19 25/18/18 27/17/25 
f 27/17/25 28/20/26 26/19/19 
s 4
f 28/23/26 27/22/25 29/21/27 
f 29/21/27 30/24/28 28/23/26 
s 2
f 30/27/28 29/26/27 31/25/23 
f 31/25/23 32/28/24 30/27/28 
s 4
f 32/31/24 31/30/23 18/29/18 
f 18/29/18 19/32/19 32/31/24 
s 16
f 22/35/22 24/34/24 26/33/19 
f 22/35/22 26/33/19 28/36/26 
f 20/37/20 22/35/22 28/36/26 
f 20/37/20 28/36/26 30/38/28 
f 20/37/20 30/38/28 32/39/24 
f 19/40/19 20/37/20 32/39/24 
f 17/43/17 18/42/18 31/41/23 
f 25/46/18 23/45/23 21/44/21 
f 27/47/25 25/46/18 21/44/21 
f 27/47/25 21/44/21 17/43/17 
f 29/48/27 27/47/25 17/43/17 
f 29/48/27 17/43/17 31/41/23 
# 0 polygons - 28 triangles

#
# object Rectangle048
#

v  -121.9986 -13.5186 74.4963
v  -121.9986 -13.5186 -71.4320
v  -109.9986 -13.5186 -71.4320
v  -109.9986 -13.5186 74.4963
v  -121.9986 -25.1707 74.4964
v  -109.9986 -25.1707 74.4964
v  -121.9986 -25.1707 -71.4320
v  -109.9986 -25.1707 -71.4320
# 8 vertices

vn -0.5774 0.5774 0.5773
vn -0.5774 0.5774 -0.5774
vn 0.5774 0.5774 -0.5774
vn 0.5774 0.5774 0.5773
vn -0.5774 -0.5773 0.5774
vn 0.5774 -0.5773 0.5774
vn -0.5774 -0.5774 -0.5774
vn 0.5774 -0.5774 -0.5774
# 8 vertex normals

o Rectangle048
g Rectangle048
usemtl Material__226
s 1
f 35//31 34//30 33//29 
f 33//29 36//32 35//31 
s 4
f 36//32 33//29 37//33 
f 37//33 38//34 36//32 
s 2
f 38//34 37//33 39//35 
f 39//35 40//36 38//34 
s 4
f 40//36 39//35 34//30 
f 34//30 35//31 40//36 
s 16
f 40//36 35//31 36//32 
f 36//32 38//34 40//36 
f 33//29 34//30 39//35 
f 39//35 37//33 33//29 
# 0 polygons - 12 triangles

