# 3ds Max Wavefront OBJ Exporter v0.97b - (c)2007 guruware
# File Created: 03.06.2019 16:36:40

mtllib stairwall.mtl

#
# object Rectangle035
#

v  179.4323 48.6228 17.0952
v  179.4323 -1.7594 101.0951
v  183.0323 -1.7594 101.0951
v  183.0323 48.6228 17.0952
v  179.4323 46.9968 17.0952
v  183.0323 46.9968 17.0952
v  179.4323 -3.3855 101.0951
v  183.0323 -3.3855 101.0951
# 8 vertices

vn -0.5541 0.7243 -0.4102
vn -0.6112 0.3900 0.6887
vn 0.6112 0.3900 0.6887
vn 0.5541 0.7243 -0.4102
vn -0.6112 -0.3900 -0.6887
vn 0.6112 -0.3900 -0.6887
vn -0.5541 -0.7243 0.4102
vn 0.5541 -0.7243 0.4102
# 8 vertex normals

o Rectangle035
g Rectangle035
usemtl wire_136224187
s 1
f 1//1 2//2 3//3 
f 3//3 4//4 1//1 
s 4
f 5//5 1//1 4//4 
f 4//4 6//6 5//5 
s 2
f 7//7 5//5 6//6 
f 6//6 8//8 7//7 
s 4
f 2//2 7//7 8//8 
f 8//8 3//3 2//2 
s 16
f 3//3 8//8 6//6 
f 6//6 4//4 3//3 
f 5//5 7//7 2//2 
f 2//2 1//1 5//5 
# 0 polygons - 12 triangles

#
# object Rectangle036
#

v  180.6324 46.9968 17.0952
v  180.6324 -3.3855 101.0951
v  181.8324 -3.3855 101.0951
v  181.8324 46.9968 17.0952
v  180.6324 21.7968 17.0952
v  181.8324 21.7968 17.0952
v  180.6324 -28.5855 101.0951
v  181.8324 -28.5855 101.0951
# 8 vertices

vn -0.5541 0.7243 -0.4102
vn -0.6112 0.3900 0.6887
vn 0.6112 0.3900 0.6887
vn 0.5541 0.7243 -0.4102
vn -0.6112 -0.3900 -0.6887
vn 0.6112 -0.3900 -0.6887
vn -0.5541 -0.7243 0.4102
vn 0.5541 -0.7243 0.4102
# 8 vertex normals

o Rectangle036
g Rectangle036
usemtl wire_230139184
s 1
f 9//9 10//10 11//11 
f 11//11 12//12 9//9 
s 4
f 13//13 9//9 12//12 
f 12//12 14//14 13//13 
s 2
f 15//15 13//13 14//14 
f 14//14 16//16 15//15 
s 4
f 10//10 15//15 16//16 
f 16//16 11//11 10//10 
s 16
f 14//14 12//12 11//11 
f 11//11 16//16 14//14 
f 10//10 9//9 13//13 
f 13//13 15//15 10//10 
# 0 polygons - 12 triangles

#
# object Rectangle039
#

v  192.6323 47.1341 14.6952
v  180.6324 47.1341 14.6952
v  180.6324 47.1341 15.8952
v  192.6323 47.1341 15.8952
v  192.6323 21.7968 14.6952
v  192.6323 21.7968 15.8952
v  180.6324 21.7968 14.6952
v  180.6324 21.7968 15.8952
# 8 vertices

vn 0.5774 0.5774 -0.5773
vn -0.5773 0.5774 -0.5774
vn -0.5774 0.5774 0.5773
vn 0.5773 0.5774 0.5774
vn 0.5774 -0.5774 -0.5774
vn 0.5774 -0.5774 0.5774
vn -0.5773 -0.5774 -0.5774
vn -0.5774 -0.5774 0.5774
# 8 vertex normals

o Rectangle039
g Rectangle039
usemtl Material__282
s 1
f 17//17 18//18 19//19 
f 19//19 20//20 17//17 
s 4
f 21//21 17//17 20//20 
f 20//20 22//22 21//21 
s 2
f 23//23 21//21 22//22 
f 22//22 24//24 23//23 
s 4
f 18//18 23//23 24//24 
f 24//24 19//19 18//18 
s 16
f 22//22 20//20 19//19 
f 19//19 24//24 22//22 
f 18//18 17//17 21//21 
f 21//21 23//23 18//18 
# 0 polygons - 12 triangles

#
# object Rectangle040
#

v  193.8323 48.7601 13.4952
v  179.4323 48.7601 13.4952
v  179.4323 48.7601 17.0952
v  193.8323 48.7601 17.0952
v  193.8323 47.1341 13.4952
v  193.8323 47.1341 17.0952
v  179.4323 47.1341 13.4952
v  179.4323 47.1341 17.0952
# 8 vertices

vn 0.5774 0.5773 -0.5774
vn -0.5773 0.5773 -0.5774
vn -0.5774 0.5774 0.5773
vn 0.5773 0.5774 0.5774
vn 0.5774 -0.5774 -0.5773
vn 0.5774 -0.5773 0.5774
vn -0.5773 -0.5774 -0.5774
vn -0.5774 -0.5773 0.5774
# 8 vertex normals

o Rectangle040
g Rectangle040
usemtl wire_131195216
s 1
f 25//25 26//26 27//27 
f 27//27 28//28 25//25 
s 4
f 29//29 25//25 28//28 
f 28//28 30//30 29//29 
s 2
f 31//31 29//29 30//30 
f 30//30 32//32 31//31 
s 4
f 26//26 31//31 32//32 
f 32//32 27//27 26//26 
s 16
f 27//27 32//32 30//30 
f 30//30 28//28 27//27 
f 29//29 31//31 26//26 
f 26//26 25//25 29//29 
# 0 polygons - 12 triangles

#
# object Rectangle041
#

v  191.4324 104.5790 101.0951
v  191.4323 54.1967 17.0952
v  192.6324 54.1967 17.0952
v  192.6324 104.5790 101.0951
v  191.4324 79.3790 101.0951
v  192.6324 79.3790 101.0951
v  191.4324 28.9968 17.0952
v  192.6324 28.9968 17.0952
# 8 vertices

vn -0.5541 0.7243 0.4102
vn -0.6112 0.3900 -0.6887
vn 0.6112 0.3900 -0.6887
vn 0.5541 0.7243 0.4102
vn -0.6112 -0.3900 0.6887
vn 0.6112 -0.3900 0.6887
vn -0.5541 -0.7243 -0.4102
vn 0.5541 -0.7243 -0.4102
# 8 vertex normals

o Rectangle041
g Rectangle041
usemtl wire_122201127
s 1
f 35//35 34//34 33//33 
f 33//33 36//36 35//35 
s 4
f 36//36 33//33 37//37 
f 37//37 38//38 36//36 
s 2
f 38//38 37//37 39//39 
f 39//39 40//40 38//38 
s 4
f 40//40 39//39 34//34 
f 34//34 35//35 40//40 
s 16
f 35//35 36//36 38//38 
f 38//38 40//40 35//35 
f 37//37 33//33 34//34 
f 34//34 39//39 37//37 
# 0 polygons - 12 triangles

#
# object Rectangle042
#

v  190.2323 106.2050 101.0951
v  190.2323 55.8228 17.0952
v  193.8323 55.8228 17.0952
v  193.8323 106.2050 101.0951
v  190.2323 104.5790 101.0951
v  193.8323 104.5790 101.0951
v  190.2323 54.1968 17.0952
v  193.8323 54.1968 17.0952
# 8 vertices

vn -0.5541 0.7243 0.4102
vn -0.6112 0.3900 -0.6887
vn 0.6112 0.3900 -0.6887
vn 0.5541 0.7243 0.4102
vn -0.6112 -0.3900 0.6887
vn 0.6112 -0.3900 0.6887
vn -0.5541 -0.7243 -0.4102
vn 0.5541 -0.7243 -0.4102
# 8 vertex normals

o Rectangle042
g Rectangle042
usemtl Material__283
s 1
f 43//43 42//42 41//41 
f 41//41 44//44 43//43 
s 4
f 44//44 41//41 45//45 
f 45//45 46//46 44//44 
s 2
f 46//46 45//45 47//47 
f 47//47 48//48 46//46 
s 4
f 48//48 47//47 42//42 
f 42//42 43//43 48//48 
s 16
f 46//46 48//48 43//43 
f 43//43 44//44 46//46 
f 42//42 47//47 45//45 
f 45//45 41//41 42//42 
# 0 polygons - 12 triangles

#
# object Rectangle043
#

v  181.8323 47.1341 17.0952
v  181.8324 47.1341 15.8952
v  180.6324 47.1341 15.8952
v  180.6323 47.1341 17.0952
v  181.8323 21.7968 17.0952
v  180.6323 21.7968 17.0952
v  181.8324 21.7968 15.8952
v  180.6324 21.7968 15.8952
# 8 vertices

vn 0.5773 0.5774 0.5774
vn 0.5774 0.5774 -0.5773
vn -0.5773 0.5774 -0.5774
vn -0.5774 0.5774 0.5773
vn 0.5773 -0.5773 0.5774
vn -0.5774 -0.5773 0.5773
vn 0.5774 -0.5774 -0.5773
vn -0.5773 -0.5773 -0.5774
# 8 vertex normals

o Rectangle043
g Rectangle043
usemtl wire_141233169
s 1
f 49//49 50//50 51//51 
f 51//51 52//52 49//49 
s 4
f 53//53 49//49 52//52 
f 52//52 54//54 53//53 
s 2
f 55//55 53//53 54//54 
f 54//54 56//56 55//55 
s 4
f 50//50 55//55 56//56 
f 56//56 51//51 50//50 
s 16
f 54//54 52//52 51//51 
f 51//51 56//56 54//54 
f 50//50 49//49 53//53 
f 53//53 55//55 50//50 
# 0 polygons - 12 triangles

#
# object Rectangle044
#

v  192.6323 47.1341 17.0952
v  192.6323 47.1341 15.8952
v  191.4323 47.1341 15.8952
v  191.4323 47.1341 17.0952
v  192.6323 21.7968 17.0952
v  191.4323 21.7968 17.0952
v  192.6323 21.7968 15.8952
v  191.4323 21.7968 15.8952
# 8 vertices

vn 0.5773 0.5774 0.5774
vn 0.5774 0.5774 -0.5773
vn -0.5773 0.5774 -0.5774
vn -0.5774 0.5774 0.5773
vn 0.5773 -0.5773 0.5774
vn -0.5774 -0.5773 0.5773
vn 0.5774 -0.5774 -0.5773
vn -0.5773 -0.5773 -0.5774
# 8 vertex normals

o Rectangle044
g Rectangle044
usemtl wire_170135223
s 1
f 57//57 58//58 59//59 
f 59//59 60//60 57//57 
s 4
f 61//61 57//57 60//60 
f 60//60 62//62 61//61 
s 2
f 63//63 61//61 62//62 
f 62//62 64//64 63//63 
s 4
f 58//58 63//63 64//64 
f 64//64 59//59 58//58 
s 16
f 62//62 60//60 59//59 
f 59//59 64//64 62//62 
f 58//58 57//57 61//61 
f 61//61 63//63 58//58 
# 0 polygons - 12 triangles

#
# object Rectangle045
#

v  193.8323 55.8228 17.0952
v  193.8324 48.6228 13.4951
v  190.2323 48.6228 13.4951
v  190.2323 55.8228 17.0952
v  193.8323 54.1968 17.0952
v  190.2323 54.1968 17.0952
v  193.8324 48.7601 17.0952
v  190.2323 48.7601 17.0952
# 8 vertices

vn 0.5405 0.8189 0.1933
vn 0.5555 -0.4507 -0.6988
vn -0.5554 -0.4507 -0.6988
vn -0.5405 0.8187 0.1937
vn 0.7071 0.0000 0.7071
vn -0.7071 0.0000 0.7071
vn 0.5793 -0.5653 0.5872
vn -0.5794 -0.5652 0.5872
# 8 vertex normals

o Rectangle045
g Rectangle045
usemtl wire_125187206
s 1
f 65//65 66//66 67//67 
f 67//67 68//68 65//65 
s 4
f 69//69 65//65 68//68 
f 68//68 70//70 69//69 
s 2
f 71//71 69//69 70//70 
f 70//70 72//72 71//71 
s 4
f 66//66 71//71 72//72 
f 72//72 67//67 66//66 
s 16
f 67//67 72//72 70//70 
f 70//70 68//68 67//67 
f 69//69 71//71 66//66 
f 66//66 65//65 69//69 
# 0 polygons - 12 triangles

