# 3ds Max Wavefront OBJ Exporter v0.97b - (c)2007 guruware
# File Created: 03.06.2019 16:37:10

mtllib stair.mtl

#
# object Rectangle011
#

v  132.6324 -21.4032 89.0952
v  180.6324 -21.4032 89.0952
v  180.6324 -28.6032 89.0952
v  132.6324 -28.6032 89.0952
v  132.6324 -21.4032 101.0952
v  132.6324 -28.6032 101.0952
v  180.6324 -21.4032 101.0952
v  180.6324 -28.6032 101.0952
# 8 vertices

vn -0.5774 0.5774 -0.5774
vn 0.5774 0.5774 -0.5774
vn 0.5774 -0.5774 -0.5774
vn -0.5774 -0.5774 -0.5774
vn -0.5774 0.5774 0.5774
vn -0.5774 -0.5774 0.5774
vn 0.5774 0.5774 0.5774
vn 0.5774 -0.5774 0.5774
# 8 vertex normals

o Rectangle011
g Rectangle011
usemtl Material__274
s 1
f 1//1 2//2 3//3 
f 3//3 4//4 1//1 
s 4
f 5//5 1//1 4//4 
f 4//4 6//6 5//5 
s 2
f 7//7 5//5 6//6 
f 6//6 8//8 7//7 
s 4
f 2//2 7//7 8//8 
f 8//8 3//3 2//2 
s 16
f 6//6 4//4 3//3 
f 3//3 8//8 6//6 
f 2//2 1//1 5//5 
f 5//5 7//7 2//2 
# 0 polygons - 12 triangles

#
# object Rectangle012
#

v  132.6324 -14.2032 77.0952
v  180.6324 -14.2032 77.0952
v  180.6324 -28.6032 77.0952
v  132.6324 -28.6032 77.0952
v  132.6324 -14.2032 89.0952
v  132.6324 -28.6032 89.0952
v  180.6324 -14.2032 89.0952
v  180.6324 -28.6032 89.0952
# 8 vertices

vn -0.5774 0.5774 -0.5774
vn 0.5774 0.5774 -0.5774
vn 0.5774 -0.5774 -0.5774
vn -0.5774 -0.5774 -0.5774
vn -0.5774 0.5774 0.5774
vn -0.5774 -0.5774 0.5774
vn 0.5774 0.5774 0.5774
vn 0.5774 -0.5774 0.5774
# 8 vertex normals

o Rectangle012
g Rectangle012
usemtl Material__273
s 1
f 9//9 10//10 11//11 
f 11//11 12//12 9//9 
s 4
f 13//13 9//9 12//12 
f 12//12 14//14 13//13 
s 2
f 15//15 13//13 14//14 
f 14//14 16//16 15//15 
s 4
f 10//10 15//15 16//16 
f 16//16 11//11 10//10 
s 16
f 14//14 12//12 11//11 
f 11//11 16//16 14//14 
f 10//10 9//9 13//13 
f 13//13 15//15 10//10 
# 0 polygons - 12 triangles

#
# object Rectangle013
#

v  132.6324 -7.0032 65.0952
v  180.6324 -7.0032 65.0952
v  180.6324 -28.6032 65.0952
v  132.6324 -28.6032 65.0952
v  132.6324 -7.0032 77.0952
v  132.6324 -28.6032 77.0952
v  180.6324 -7.0032 77.0952
v  180.6324 -28.6032 77.0952
# 8 vertices

vn -0.5774 0.5774 -0.5774
vn 0.5774 0.5774 -0.5774
vn 0.5774 -0.5774 -0.5774
vn -0.5774 -0.5774 -0.5774
vn -0.5774 0.5774 0.5774
vn -0.5774 -0.5774 0.5774
vn 0.5774 0.5774 0.5774
vn 0.5774 -0.5774 0.5774
# 8 vertex normals

o Rectangle013
g Rectangle013
usemtl Material__272
s 1
f 17//17 18//18 19//19 
f 19//19 20//20 17//17 
s 4
f 21//21 17//17 20//20 
f 20//20 22//22 21//21 
s 2
f 23//23 21//21 22//22 
f 22//22 24//24 23//23 
s 4
f 18//18 23//23 24//24 
f 24//24 19//19 18//18 
s 16
f 22//22 20//20 19//19 
f 19//19 24//24 22//22 
f 18//18 17//17 21//21 
f 21//21 23//23 18//18 
# 0 polygons - 12 triangles

#
# object Rectangle014
#

v  132.6324 0.1968 53.0952
v  180.6324 0.1968 53.0952
v  180.6324 -28.6032 53.0952
v  132.6324 -28.6032 53.0952
v  132.6324 0.1968 65.0952
v  132.6324 -28.6032 65.0952
v  180.6324 0.1968 65.0952
v  180.6324 -28.6032 65.0952
# 8 vertices

vn -0.5774 0.5774 -0.5774
vn 0.5774 0.5774 -0.5774
vn 0.5774 -0.5774 -0.5774
vn -0.5774 -0.5774 -0.5774
vn -0.5774 0.5774 0.5774
vn -0.5774 -0.5774 0.5774
vn 0.5774 0.5774 0.5774
vn 0.5774 -0.5774 0.5774
# 8 vertex normals

o Rectangle014
g Rectangle014
usemtl Material__271
s 1
f 25//25 26//26 27//27 
f 27//27 28//28 25//25 
s 4
f 29//29 25//25 28//28 
f 28//28 30//30 29//29 
s 2
f 31//31 29//29 30//30 
f 30//30 32//32 31//31 
s 4
f 26//26 31//31 32//32 
f 32//32 27//27 26//26 
s 16
f 30//30 28//28 27//27 
f 27//27 32//32 30//30 
f 26//26 25//25 29//29 
f 29//29 31//31 26//26 
# 0 polygons - 12 triangles

#
# object Rectangle015
#

v  132.6324 7.3968 41.0952
v  180.6324 7.3968 41.0952
v  180.6324 -28.6032 41.0952
v  132.6324 -28.6032 41.0952
v  132.6324 7.3968 53.0952
v  132.6324 -28.6032 53.0952
v  180.6324 7.3968 53.0952
v  180.6324 -28.6032 53.0952
# 8 vertices

vn -0.5774 0.5774 -0.5774
vn 0.5774 0.5774 -0.5774
vn 0.5774 -0.5774 -0.5774
vn -0.5774 -0.5774 -0.5774
vn -0.5774 0.5774 0.5774
vn -0.5774 -0.5774 0.5774
vn 0.5774 0.5774 0.5774
vn 0.5774 -0.5774 0.5774
# 8 vertex normals

o Rectangle015
g Rectangle015
usemtl Material__270
s 1
f 33//33 34//34 35//35 
f 35//35 36//36 33//33 
s 4
f 37//37 33//33 36//36 
f 36//36 38//38 37//37 
s 2
f 39//39 37//37 38//38 
f 38//38 40//40 39//39 
s 4
f 34//34 39//39 40//40 
f 40//40 35//35 34//34 
s 16
f 38//38 36//36 35//35 
f 35//35 40//40 38//38 
f 34//34 33//33 37//37 
f 37//37 39//39 34//34 
# 0 polygons - 12 triangles

#
# object Rectangle016
#

v  132.6324 14.5968 29.0952
v  180.6324 14.5968 29.0952
v  180.6324 -28.6032 29.0952
v  132.6324 -28.6032 29.0952
v  132.6324 14.5968 41.0952
v  132.6324 -28.6032 41.0952
v  180.6324 14.5968 41.0952
v  180.6324 -28.6032 41.0952
# 8 vertices

vn -0.5774 0.5774 -0.5774
vn 0.5774 0.5774 -0.5774
vn 0.5774 -0.5774 -0.5774
vn -0.5774 -0.5774 -0.5774
vn -0.5774 0.5774 0.5774
vn -0.5774 -0.5774 0.5774
vn 0.5774 0.5774 0.5774
vn 0.5774 -0.5774 0.5774
# 8 vertex normals

o Rectangle016
g Rectangle016
usemtl Material__269
s 1
f 41//41 42//42 43//43 
f 43//43 44//44 41//41 
s 4
f 45//45 41//41 44//44 
f 44//44 46//46 45//45 
s 2
f 47//47 45//45 46//46 
f 46//46 48//48 47//47 
s 4
f 42//42 47//47 48//48 
f 48//48 43//43 42//42 
s 16
f 46//46 44//44 43//43 
f 43//43 48//48 46//46 
f 42//42 41//41 45//45 
f 45//45 47//47 42//42 
# 0 polygons - 12 triangles

#
# object Rectangle017
#

v  132.6324 21.7968 17.0952
v  180.6324 21.7968 17.0952
v  180.6324 -28.6032 17.0952
v  132.6324 -28.6032 17.0952
v  132.6324 21.7968 29.0952
v  132.6324 -28.6032 29.0952
v  180.6324 21.7968 29.0952
v  180.6324 -28.6032 29.0952
# 8 vertices

vn -0.5774 0.5774 -0.5774
vn 0.5774 0.5774 -0.5774
vn 0.5774 -0.5774 -0.5774
vn -0.5774 -0.5774 -0.5774
vn -0.5774 0.5774 0.5774
vn -0.5774 -0.5774 0.5774
vn 0.5774 0.5774 0.5774
vn 0.5774 -0.5774 0.5774
# 8 vertex normals

o Rectangle017
g Rectangle017
usemtl Material__268
s 1
f 49//49 50//50 51//51 
f 51//51 52//52 49//49 
s 4
f 53//53 49//49 52//52 
f 52//52 54//54 53//53 
s 2
f 55//55 53//53 54//54 
f 54//54 56//56 55//55 
s 4
f 50//50 55//55 56//56 
f 56//56 51//51 50//50 
s 16
f 54//54 52//52 51//51 
f 51//51 56//56 54//54 
f 50//50 49//49 53//53 
f 53//53 55//55 50//50 
# 0 polygons - 12 triangles

#
# object Rectangle018
#

v  132.6324 28.9968 -30.9048
v  240.6324 28.9968 -30.9048
v  240.6324 -28.6032 -30.9048
v  132.6324 -28.6032 -30.9048
v  132.6324 28.9968 17.0952
v  132.6324 -28.6032 17.0952
v  240.6324 28.9968 17.0952
v  240.6324 -28.6032 17.0952
# 8 vertices

vn -0.5774 0.5774 -0.5774
vn 0.5774 0.5774 -0.5774
vn 0.5774 -0.5774 -0.5774
vn -0.5774 -0.5774 -0.5774
vn -0.5774 0.5774 0.5774
vn -0.5774 -0.5774 0.5774
vn 0.5774 0.5774 0.5774
vn 0.5774 -0.5774 0.5774
# 8 vertex normals

o Rectangle018
g Rectangle018
usemtl Material__267
s 1
f 57//57 58//58 59//59 
f 59//59 60//60 57//57 
s 4
f 61//61 57//57 60//60 
f 60//60 62//62 61//61 
s 2
f 63//63 61//61 62//62 
f 62//62 64//64 63//63 
s 4
f 58//58 63//63 64//64 
f 64//64 59//59 58//58 
s 16
f 62//62 60//60 59//59 
f 59//59 64//64 62//62 
f 58//58 57//57 61//61 
f 61//61 63//63 58//58 
# 0 polygons - 12 triangles

#
# object Rectangle019
#

v  192.6324 72.1968 77.0952
v  240.6324 72.1968 77.0952
v  240.6324 64.9968 77.0952
v  192.6324 64.9968 77.0952
v  192.6324 72.1968 89.0952
v  192.6324 64.9968 89.0952
v  240.6324 72.1968 89.0952
v  240.6324 64.9968 89.0952
# 8 vertices

vn -0.5774 0.5774 -0.5774
vn 0.5774 0.5774 -0.5774
vn 0.5774 -0.5774 -0.5774
vn -0.5774 -0.5774 -0.5774
vn -0.5774 0.5774 0.5774
vn -0.5774 -0.5774 0.5774
vn 0.5774 0.5774 0.5774
vn 0.5774 -0.5774 0.5774
# 8 vertex normals

o Rectangle019
g Rectangle019
usemtl Material__280
s 1
f 65//65 66//66 67//67 
f 67//67 68//68 65//65 
s 4
f 69//69 65//65 68//68 
f 68//68 70//70 69//69 
s 2
f 71//71 69//69 70//70 
f 70//70 72//72 71//71 
s 4
f 66//66 71//71 72//72 
f 72//72 67//67 66//66 
s 16
f 70//70 68//68 67//67 
f 67//67 72//72 70//70 
f 66//66 65//65 69//69 
f 69//69 71//71 66//66 
# 0 polygons - 12 triangles

#
# object Rectangle020
#

v  192.6324 64.9967 65.0952
v  240.6324 64.9967 65.0952
v  240.6324 57.7968 65.0952
v  192.6324 57.7968 65.0952
v  192.6324 64.9967 77.0952
v  192.6324 57.7968 77.0952
v  240.6324 64.9967 77.0952
v  240.6324 57.7968 77.0952
# 8 vertices

vn -0.5774 0.5774 -0.5774
vn 0.5774 0.5774 -0.5774
vn 0.5774 -0.5774 -0.5774
vn -0.5774 -0.5774 -0.5774
vn -0.5774 0.5774 0.5774
vn -0.5774 -0.5774 0.5774
vn 0.5774 0.5774 0.5774
vn 0.5774 -0.5774 0.5774
# 8 vertex normals

o Rectangle020
g Rectangle020
usemtl Material__279
s 1
f 73//73 74//74 75//75 
f 75//75 76//76 73//73 
s 4
f 77//77 73//73 76//76 
f 76//76 78//78 77//77 
s 2
f 79//79 77//77 78//78 
f 78//78 80//80 79//79 
s 4
f 74//74 79//79 80//80 
f 80//80 75//75 74//74 
s 16
f 78//78 76//76 75//75 
f 75//75 80//80 78//78 
f 74//74 73//73 77//77 
f 77//77 79//79 74//74 
# 0 polygons - 12 triangles

#
# object Rectangle021
#

v  192.6324 57.7967 53.0952
v  240.6324 57.7967 53.0952
v  240.6324 50.5967 53.0952
v  192.6324 50.5967 53.0952
v  192.6324 57.7967 65.0952
v  192.6324 50.5967 65.0952
v  240.6324 57.7967 65.0952
v  240.6324 50.5967 65.0952
# 8 vertices

vn -0.5774 0.5774 -0.5774
vn 0.5774 0.5774 -0.5774
vn 0.5774 -0.5774 -0.5774
vn -0.5774 -0.5774 -0.5774
vn -0.5774 0.5774 0.5774
vn -0.5774 -0.5774 0.5774
vn 0.5774 0.5774 0.5774
vn 0.5774 -0.5774 0.5774
# 8 vertex normals

o Rectangle021
g Rectangle021
usemtl Material__278
s 1
f 81//81 82//82 83//83 
f 83//83 84//84 81//81 
s 4
f 85//85 81//81 84//84 
f 84//84 86//86 85//85 
s 2
f 87//87 85//85 86//86 
f 86//86 88//88 87//87 
s 4
f 82//82 87//87 88//88 
f 88//88 83//83 82//82 
s 16
f 86//86 84//84 83//83 
f 83//83 88//88 86//86 
f 82//82 81//81 85//85 
f 85//85 87//87 82//82 
# 0 polygons - 12 triangles

#
# object Rectangle022
#

v  192.6324 50.5968 41.0952
v  240.6324 50.5968 41.0952
v  240.6324 43.3968 41.0952
v  192.6324 43.3968 41.0952
v  192.6324 50.5968 53.0952
v  192.6324 43.3968 53.0952
v  240.6324 50.5968 53.0952
v  240.6324 43.3968 53.0952
# 8 vertices

vn -0.5774 0.5774 -0.5774
vn 0.5774 0.5774 -0.5774
vn 0.5774 -0.5774 -0.5774
vn -0.5774 -0.5774 -0.5774
vn -0.5774 0.5774 0.5774
vn -0.5774 -0.5774 0.5774
vn 0.5774 0.5774 0.5774
vn 0.5774 -0.5774 0.5774
# 8 vertex normals

o Rectangle022
g Rectangle022
usemtl Material__277
s 1
f 89//89 90//90 91//91 
f 91//91 92//92 89//89 
s 4
f 93//93 89//89 92//92 
f 92//92 94//94 93//93 
s 2
f 95//95 93//93 94//94 
f 94//94 96//96 95//95 
s 4
f 90//90 95//95 96//96 
f 96//96 91//91 90//90 
s 16
f 94//94 92//92 91//91 
f 91//91 96//96 94//94 
f 90//90 89//89 93//93 
f 93//93 95//95 90//90 
# 0 polygons - 12 triangles

#
# object Rectangle023
#

v  192.6324 43.3968 29.0952
v  240.6324 43.3968 29.0952
v  240.6324 36.1968 29.0952
v  192.6324 36.1968 29.0952
v  192.6324 43.3968 41.0952
v  192.6324 36.1968 41.0952
v  240.6324 43.3968 41.0952
v  240.6324 36.1968 41.0952
# 8 vertices

vn -0.5774 0.5774 -0.5774
vn 0.5774 0.5774 -0.5774
vn 0.5774 -0.5774 -0.5774
vn -0.5774 -0.5774 -0.5774
vn -0.5774 0.5774 0.5774
vn -0.5774 -0.5774 0.5774
vn 0.5774 0.5774 0.5774
vn 0.5774 -0.5774 0.5774
# 8 vertex normals

o Rectangle023
g Rectangle023
usemtl Material__276
s 1
f 97//97 98//98 99//99 
f 99//99 100//100 97//97 
s 4
f 101//101 97//97 100//100 
f 100//100 102//102 101//101 
s 2
f 103//103 101//101 102//102 
f 102//102 104//104 103//103 
s 4
f 98//98 103//103 104//104 
f 104//104 99//99 98//98 
s 16
f 102//102 100//100 99//99 
f 99//99 104//104 102//102 
f 98//98 97//97 101//101 
f 101//101 103//103 98//98 
# 0 polygons - 12 triangles

#
# object Rectangle024
#

v  192.6324 79.3967 89.0952
v  240.6324 79.3967 89.0952
v  240.6324 72.1967 89.0952
v  192.6324 72.1967 89.0952
v  192.6324 79.3967 101.0952
v  192.6324 72.1967 101.0952
v  240.6324 79.3967 101.0952
v  240.6324 72.1967 101.0952
# 8 vertices

vn -0.5774 0.5774 -0.5774
vn 0.5774 0.5774 -0.5774
vn 0.5774 -0.5774 -0.5774
vn -0.5774 -0.5774 -0.5774
vn -0.5774 0.5774 0.5774
vn -0.5774 -0.5774 0.5774
vn 0.5774 0.5774 0.5774
vn 0.5774 -0.5774 0.5774
# 8 vertex normals

o Rectangle024
g Rectangle024
usemtl Material__281
s 1
f 105//105 106//106 107//107 
f 107//107 108//108 105//105 
s 4
f 109//109 105//105 108//108 
f 108//108 110//110 109//109 
s 2
f 111//111 109//109 110//110 
f 110//110 112//112 111//111 
s 4
f 106//106 111//111 112//112 
f 112//112 107//107 106//106 
s 16
f 110//110 108//108 107//107 
f 107//107 112//112 110//110 
f 106//106 105//105 109//109 
f 109//109 111//111 106//106 
# 0 polygons - 12 triangles

#
# object Rectangle025
#

v  192.6324 36.1968 17.0952
v  240.6324 36.1968 17.0952
v  240.6324 28.9968 17.0952
v  192.6324 28.9968 17.0952
v  192.6324 36.1968 29.0952
v  192.6324 28.9968 29.0952
v  240.6324 36.1968 29.0952
v  240.6324 28.9968 29.0952
# 8 vertices

vn -0.5774 0.5774 -0.5774
vn 0.5774 0.5774 -0.5774
vn 0.5774 -0.5774 -0.5774
vn -0.5774 -0.5774 -0.5774
vn -0.5774 0.5774 0.5774
vn -0.5774 -0.5774 0.5774
vn 0.5774 0.5774 0.5774
vn 0.5774 -0.5774 0.5774
# 8 vertex normals

o Rectangle025
g Rectangle025
usemtl Material__275
s 1
f 113//113 114//114 115//115 
f 115//115 116//116 113//113 
s 4
f 117//117 113//113 116//116 
f 116//116 118//118 117//117 
s 2
f 119//119 117//117 118//118 
f 118//118 120//120 119//119 
s 4
f 114//114 119//119 120//120 
f 120//120 115//115 114//114 
s 16
f 118//118 116//116 115//115 
f 115//115 120//120 118//118 
f 114//114 113//113 117//117 
f 117//117 119//119 114//114 
# 0 polygons - 12 triangles

