# 3ds Max Wavefront OBJ Exporter v0.97b - (c)2007 guruware
# File Created: 03.06.2019 16:35:48

mtllib tv.mtl

#
# object Mesh02
#

v  -120.7578 53.1006 -35.5700
v  -120.7578 11.6676 35.0468
v  -120.7578 53.1006 35.0468
v  -120.7578 11.6676 3.5308
v  -120.7578 11.6676 4.1628
v  -120.7578 11.6676 -3.4219
v  -120.7578 11.6676 -2.7898
v  -120.7578 11.6676 1.0025
v  -120.7578 11.6676 1.6346
v  -120.7578 11.6676 -2.1578
v  -120.7578 11.6676 -1.5257
v  -120.7578 11.6676 2.2666
v  -120.7578 11.6676 -0.8937
v  -120.7578 11.6676 -35.5700
v  -120.7578 11.6676 -4.6860
v  -120.7578 11.6676 2.8987
v  -120.7578 11.6676 0.3705
v  -120.7578 11.6676 -4.0540
# 18 vertices

vn 1.0000 0.0000 -0.0000
vn 1.0000 -0.0000 -0.0000
vn 1.0000 0.0000 0.0000
# 3 vertex normals

vt 0.0211 0.9995 0.0000
vt 0.9789 0.0005 0.0000
vt 0.9789 0.9995 0.0000
vt 0.5514 0.0005 0.0000
vt 0.5600 0.0005 0.0000
vt 0.4571 0.0005 0.0000
vt 0.4657 0.0005 0.0000
vt 0.5171 0.0005 0.0000
vt 0.5257 0.0005 0.0000
vt 0.4743 0.0005 0.0000
vt 0.4829 0.0005 0.0000
vt 0.5343 0.0005 0.0000
vt 0.4914 0.0005 0.0000
vt 0.0211 0.0005 0.0000
vt 0.4400 0.0005 0.0000
vt 0.5429 0.0005 0.0000
vt 0.5086 0.0005 0.0000
vt 0.4486 0.0005 0.0000
# 18 texture coords

o Mesh02
g Mesh02
usemtl Material__230
s off
f 3/3/1 2/2/1 1/1/1 
f 5/5/1 4/4/1 1/1/1 
f 7/7/2 6/6/1 1/1/1 
f 9/9/2 8/8/1 1/1/1 
f 11/11/3 10/10/3 1/1/1 
f 12/12/2 9/9/2 1/1/1 
f 10/10/3 7/7/2 1/1/1 
f 2/2/1 5/5/1 1/1/1 
f 13/13/1 11/11/3 1/1/1 
f 15/15/1 14/14/1 1/1/1 
f 4/4/1 16/16/1 1/1/1 
f 16/16/1 12/12/2 1/1/1 
f 8/8/1 17/17/1 1/1/1 
f 6/6/1 18/18/1 1/1/1 
f 17/17/1 13/13/1 1/1/1 
f 18/18/1 15/15/1 1/1/1 
# 0 polygons - 16 triangles

