# 3ds Max Wavefront OBJ Exporter v0.97b - (c)2007 guruware
# File Created: 03.06.2019 16:34:53

mtllib tvwall.mtl

#
# object Rectangle046
#

v  -152.3676 67.3968 -84.9048
v  -122.3676 67.3968 -84.9048
v  -122.3676 -28.6032 -84.9048
v  -152.3676 -28.6032 -84.9048
v  -152.3676 67.3968 83.0952
v  -152.3676 -28.6032 83.0952
v  -122.3676 67.3968 83.0952
v  -122.3676 -28.6032 83.0952
# 8 vertices

vn -0.5774 0.5774 -0.5774
vn 0.5774 0.5774 -0.5774
vn 0.5774 -0.5774 -0.5774
vn -0.5774 -0.5774 -0.5774
vn -0.5774 0.5774 0.5774
vn -0.5774 -0.5774 0.5774
vn 0.5774 0.5774 0.5774
vn 0.5774 -0.5774 0.5774
# 8 vertex normals

vt 0.7733 1.3909 1.3909
vt 0.2267 1.3909 1.3909
vt 0.2267 -0.3909 1.3909
vt 0.7733 -0.3909 1.3909
vt 1.3909 1.3909 0.2267
vt -0.3909 1.3909 0.2267
vt -0.3909 -0.3909 0.2267
vt 1.3909 -0.3909 0.2267
vt 0.7733 1.3909 -0.3909
vt 0.2267 1.3909 -0.3909
vt 0.2267 -0.3909 -0.3909
vt 0.7733 -0.3909 -0.3909
vt 1.3909 1.3909 0.7733
vt -0.3909 1.3909 0.7733
vt -0.3909 -0.3909 0.7733
vt 1.3909 -0.3909 0.7733
# 16 texture coords

o Rectangle046
g Rectangle046
usemtl Material__260
s 1
f 1/1/1 2/2/2 3/3/3 
f 3/3/3 4/4/4 1/1/1 
s 4
f 5/5/5 1/6/1 4/7/4 
f 4/7/4 6/8/6 5/5/5 
s 2
f 7/9/7 5/10/5 6/11/6 
f 6/11/6 8/12/8 7/9/7 
s 4
f 2/13/2 7/14/7 8/15/8 
f 8/15/8 3/16/3 2/13/2 
s 16
f 6/12/6 4/9/4 3/10/3 
f 3/10/3 8/11/8 6/12/6 
f 2/1/2 1/2/1 5/3/5 
f 5/3/5 7/4/7 2/1/2 
# 0 polygons - 12 triangles

